<svg xmlns="http://www.w3.org/2000/svg" viewBox="0 0 90.33 94.04"><defs><style>.cls-3{fill:#fe0909}</style></defs><g id="Слой_2" data-name="Слой 2"><g id="Слой_1-2" data-name="Слой 1"><path d="M90.08 33c0 4.87-.37 9.78.06 14.61 2.56 26.89-21.51 36.78-42 45.74a6.9 6.9 0 01-4.7.4C24 87.29 0 74.55.08 51.1 0 37.73.15 24.36 0 11c0-2.77 1-3.92 3.5-4.74 27.28-9.2 55.87-7.44 83.3 0 2.46.52 3.43 1.64 3.35 4.33-.21 7.41-.07 14.95-.07 22.41zM2 33.46c0 6 .16 12 0 18C1.55 74 25.31 85.82 43.69 92.21a6.07 6.07 0 003.62-.15c19.27-6.57 42.52-19 41.35-42.62-.53-12.34-.25-24.73 0-37.1.05-3.15-1-4.55-3.94-5.07-29-6.17-51-9.15-80 .34C2.65 8.25 2 9.26 2 11.35c.08 7.37 0 14.74 0 22.11z" fill="#cbb593"/><path d="M4.52 33.11c0-6.5.12-13-.07-19.5-.07-2.48.83-3.43 3.12-4.11 24.85-7.68 50.91-6.42 75.77.41 1 .23 2.51 1.55 2.52 2.37.09 14.13.46 28.27-.22 42.37C84.3 74.57 63.29 81.74 47.83 89a5.8 5.8 0 01-3.91.4c-11.41-4-22.23-9-30.86-17.79a28.29 28.29 0 01-8.57-21.24c.14-5.75.03-11.5.03-17.26zm73.59-10.28a28.08 28.08 0 00-8.89-.83c-6.74.58-10.75 6.06-8.4 12.36 1.11 3 3.7 5.47 5.91 7.93s4.72 4.11 6.76 6.44c5 6.29-1.31 14.47-8.71 11.26 2.75-10.99-2.72-17.27-12.2-21.62 4.5-4.84 8.69-10.37 6.11-17.18-1.95-5.17-6.2-7.43-11.43-7.61-6.63-.23-13.28-.06-19.93-.06 5 1.91 5.62 2.92 4.81 9.19H15.56c.77 1.34 2.22 2.71 2.24 4.1q.27 15.17-.05 30.35c0 1.56-1.4 3.1-2.05 4.41l16.58.91c-.05 3.76.34 7.39-4.66 8 8.27.18 16.35.67 24.32-.06 3.23-.3 6.7-2.76 9.17-5.16a8.85 8.85 0 016.65-2.86c8.8-.2 13.9-8.52 9.82-16.08-2.75-4.54-7.51-7.68-11.41-11.2-2.53-2.35-3.54-5.26-1.77-8.43 3.12-5.38 9-2.69 13.32-.21z" fill="#fe0505"/><path class="cls-3" d="M32.41 24.34v36.17c-4-.4-9.93.66-9.88-4.82 0-9.63-.13-19.25 0-28.87 0-.84 1.48-2.23 2.42-2.36a54.25 54.25 0 017.46-.12z"/><path d="M53.28 44.5c4.72 4.21 6.93 12.21 5 17.83-2.06 6.07-13.1 9-17.9 4.69a3.74 3.74 0 01.84-6.42c7.32-3.09 10.23-8.75 12.06-16.1z" fill="#fe0707"/><path class="cls-3" d="M52 34.46c-2.53-5.95-7.06-9.38-13-11v-7.32C50.51 12 56.69 24.68 52 34.46z"/><path d="M39 59.05V40.9c.26-.23.35-.36.44-.37 10-.18 10.44-.65 7.77 10.06-1.01 4.07-3.85 6.76-8.21 8.46z" fill="#fe0606"/><path d="M47.77 38H39V26.93c4.6 2.41 7.18 5.99 8.77 11.07z" fill="#fe0b0b"/></g></g></svg>