<svg version="1.0" xmlns="http://www.w3.org/2000/svg" width="1504" height="1706.667" viewBox="0 0 1128 1280"><path d="M553.5.6c-7.1 1.2-19.5 5.6-26 9.4-16.8 9.9-27.7 23.4-34.6 43-2.2 6.1-2.3 8.3-2.7 38.2-.2 17.5-.5 31.8-.8 31.8-.2 0-2.5-1.6-5.1-3.7-5.9-4.4-16.6-9.5-25.3-11.9-8.7-2.4-27.1-2.4-36-.1-20.1 5.3-38.4 19.8-47.5 37.7-6.2 12.4-8 19.9-8 34.5.1 14.3 1.5 21.5 6.5 32 1.6 3.3 28.3 42.9 59.4 88l56.5 82 .1 64.7c0 35.7-.2 64.8-.4 64.8-1 0-110.3-63.4-111.8-64.9-.9-.9-19.3-38.7-40.8-84-46.1-97-45.5-95.8-51.3-103.8-8.9-12.1-25-22.7-40.7-26.9-8.9-2.4-28.2-2.5-36.8-.1-26.4 7.2-46.1 26.8-53.2 53-1.6 5.8-2.2 10.7-2.2 19.2 0 6.3.3 11.9.7 12.5.3.5.4 1 .1 1-.2 0-11.1-6.1-24.1-13.6-24.7-14.3-32.2-17.6-44.5-19.5-32.5-5-66.9 14.2-79.2 44.3C-6 357.3.9 389.4 23.6 410.9c6.8 6.4 11.8 9.8 31.7 21.1 13 7.4 23.6 13.7 23.7 14 0 .3-2.1 1.3-4.7 2.2-6.7 2.4-16.3 9-23.1 15.8-11.9 11.9-19.2 27.1-21.3 44.4-3.3 26.1 9.2 53 31.7 68.6 9.6 6.6 20.3 10.9 31.8 12.6 10 1.5.4 2.1 140.7-9.1l68.6-5.5 56.1 32.2c30.9 17.8 56.1 32.5 56.1 32.8 0 .3-25.2 15-56.1 32.8L302.7 705l-68.6-5.5c-140.3-11.2-130.7-10.6-140.7-9.1-32.6 4.9-57.5 29.4-63 62.1-4.8 28.4 8.3 57.2 33.3 73.6 4.2 2.7 9.3 5.4 11.4 6.1 2.2.6 3.9 1.4 3.9 1.7-.1.3-10.7 6.7-23.8 14.1-20.1 11.5-24.9 14.6-31.7 21.2-38.4 36.7-28 99.1 20.2 120.9C51.5 993.7 66 997 74 997c16.6 0 26.5-3.6 55.5-20.4 12.9-7.5 23.8-13.6 24.1-13.6.3 0 .2.5-.1 1-.4.6-.7 6.2-.7 12.5 0 18 5.1 32.9 15.9 46.6 9.2 11.8 24.1 21.5 39.3 25.6 8.9 2.4 27 2.4 36.5-.1 16.1-4.1 32-14.6 41.2-26.9 5.1-6.9 11.4-19.6 58.7-119.2l32.8-69 55.5-32c30.5-17.6 55.9-32.2 56.4-32.3.5-.2.9 26.7.9 64.5l-.1 64.8-56.5 82c-31.1 45.1-57.8 84.7-59.4 88-5 10.5-6.4 17.7-6.5 32 0 14.6 1.8 22.1 8 34.5 9.1 17.9 27.4 32.4 47.5 37.7 8.9 2.3 27.3 2.3 36-.1s19.4-7.5 25.3-11.9c2.6-2.1 4.9-3.7 5.1-3.7.3 0 .6 14.3.8 31.8.4 29.9.5 32.1 2.7 38.2 8.9 25.1 26.1 42.1 50.1 49.7 7.4 2.4 10.2 2.7 21 2.7 10.2 0 13.9-.4 20-2.3 24.7-7.7 42.2-24.8 51.1-50.1 2.2-6.1 2.3-8.3 2.7-38.2.2-17.5.5-31.8.8-31.8.2 0 2.5 1.6 5.1 3.7 5.7 4.3 16.3 9.3 25.3 11.9 8.7 2.4 26.9 2.5 36 .1 20.2-5.3 38.2-19.6 47.5-37.7 6.2-12.3 8-19.9 8-34.5 0-14.4-1.5-21.5-6.5-31.9-1.6-3.3-28.3-43-59.4-88.1l-56.5-82-.1-64.8c0-37.4.4-64.7.9-64.5.5.1 25.9 14.7 56.4 32.3l55.5 32 32.8 69c48.9 103 54.4 114.1 60 121 16.9 20.5 45.4 31.1 71 26.2 38.2-7.3 64.2-41.8 60.3-80-.3-3.4-.5-6.3-.4-6.5.1-.1 10.9 5.9 23.9 13.4 24.8 14.3 32.3 17.6 44.6 19.5 32.5 5 66.9-14.2 79.2-44.3 11.8-29.1 4.9-61.2-17.8-82.7-6.8-6.4-11.8-9.8-31.7-21.1-13-7.4-23.6-13.8-23.7-14.1 0-.3 1.7-1.1 3.9-1.7 5.5-1.7 17.8-10 24-16.3 15.8-15.9 24-39.3 21.1-60.6-4.5-34.1-29.6-59.7-63.4-64.9-10-1.5-.2-2.1-140.7 9.1l-68.6 5.5-56.1-32.2c-30.9-17.8-56.1-32.5-56.1-32.8 0-.3 25.2-15 56.1-32.8l56.1-32.2 68.6 5.5c140.5 11.2 130.7 10.6 140.7 9.1 19.2-2.9 36.7-13 47.8-27.5 9.2-12 13.7-22.8 15.6-37.4 2.9-21.3-5.3-44.7-21.1-60.6-6.2-6.3-18.5-14.6-24-16.3-2.2-.6-3.9-1.4-3.9-1.7.1-.3 10.8-6.7 23.8-14.1 21.9-12.5 24.4-14.2 32.8-22.5 7.8-7.7 9.8-10.4 13.8-18.5 5.5-11.4 7.5-18.5 8.3-30.5 1.6-24.5-9.9-48.6-30.4-63.1-20.8-14.9-48.2-18.3-71.3-9-3.1 1.3-15.9 8.2-28.4 15.5-12.6 7.2-23 13-23.1 12.9-.1-.2.1-3.1.4-6.6 3.4-32.8-16-64.3-46.8-76.1-29.8-11.4-64.3-2.3-84.4 22.4-6.2 7.6-6.8 8.9-53.2 106.5-21.2 44.8-39.4 82.2-40.3 83.1-1.5 1.5-110.8 64.9-111.8 64.9-.2 0-.4-29.1-.4-64.8l.1-64.7 56.5-82c31.1-45.1 57.8-84.8 59.4-88.1 5-10.4 6.5-17.5 6.5-31.9 0-14.6-1.8-22.2-8-34.5-9.3-18.1-27.3-32.4-47.5-37.7-9.1-2.4-27.3-2.3-36 .1-9 2.6-19.6 7.6-25.3 11.9-2.6 2.1-4.9 3.7-5.1 3.7-.3 0-.6-14.3-.8-31.8-.4-29.9-.5-32.1-2.7-38.2C623.9 21.3 598 1.4 566.5.5c-5.5-.2-11.3-.1-13 .1zm24.3 40.6c6.9 2.6 15.4 10.8 19 18.5l2.7 5.8.5 88.1.5 88.2 29-42.1c16-23.2 30.7-43.8 32.7-45.9 12.9-13 34.9-13.3 49.3-.7 10.4 9.2 14.4 27.3 8.8 39.9-1.1 2.5-28.6 43.2-61.1 90.4L600 369.2v103.9c0 57.2.3 103.9.8 103.9.4-.1 41-23.3 90.2-51.8l89.4-51.7 44.6-93.7c24.5-51.6 46-95.7 47.7-98.2 6.6-9.4 20-15.4 31.5-14.2 12.6 1.3 25.1 10.1 30 21.3 2.5 5.8 3.5 16.6 1.9 22.7-.6 2.4-11 25.3-23.1 50.7-12.1 25.4-22 46.6-22 47.1s1.7-.2 3.8-1.5c12.4-7.8 144.1-83.3 147.6-84.5 6.1-2.4 17.8-2 24.8.7 8 3.1 15 9.8 19 17.9 2.9 6 3.2 7.6 3.2 15.2-.1 7.3-.5 9.4-3.1 15-1.7 3.7-4.9 8.3-7.4 10.7-2.8 2.6-30.2 19-75.8 45.3-39.2 22.6-72.4 41.6-73.7 42.2-1.3.6-2.4 1.4-2.4 1.7 0 .3 23.5 2.5 52.3 4.8 44.3 3.5 53.1 4.5 57.9 6.3 7.6 2.8 15.9 10.4 19.5 17.8 2.5 5.1 2.8 6.8 2.8 15.7 0 9-.3 10.5-2.8 15.3-6.2 11.8-16.7 19.1-28.6 20-3.7.2-51.1-3.1-109.2-7.8l-102.6-8.2-89.4 51.6c-49.2 28.4-89.5 52-89.7 52.4-.1.4 40.1 24.1 89.5 52.6l89.7 51.8 102.5-8.2c57.4-4.6 105.5-8 109.1-7.8 11.7.9 22 7.8 28.1 19 3.2 6 3.4 6.8 3.4 16.3 0 8.9-.3 10.6-2.8 15.7-1.7 3.4-5 7.7-8.2 10.7-9.5 8.6-9.9 8.7-69.5 13.5l-52.5 4.2 9.5 5.6c5.2 3.1 38.5 22.3 74 42.8 41.3 23.8 66.1 38.7 68.9 41.3 2.5 2.4 5.7 7 7.4 10.7 2.6 5.6 3 7.7 3.1 15 0 7.6-.3 9.2-3.2 15.2-4 8.1-11 14.8-19 17.9-6.9 2.7-18.7 3.1-24.8.8-3.2-1.2-109.5-62.1-144.1-82.5-4-2.4-7.3-4-7.3-3.6 0 .4 9.9 21.6 22 47.1 12.1 25.4 22.5 48.3 23.1 50.7 1.6 6.1.6 16.9-1.9 22.7-3.1 7-11.1 14.9-18.5 18.3-8.4 3.8-18.4 4-27.6.5-9.6-3.7-15.5-10-22-23.6-2.9-6.1-20.1-42.1-38.1-80-18-38-36.1-76-40.2-84.6l-7.5-15.5-89.5-51.7C641.6 726.3 601 703 600.6 703c-.3 0-.6 46.7-.6 103.9v103.9l59.2 85.8c32.5 47.2 60 87.9 61.1 90.4 5.6 12.6 1.6 30.7-8.8 39.9-14.4 12.6-36.4 12.3-49.3-.7-2-2.1-16.7-22.7-32.7-45.9l-29-42.1-.5 88.2-.5 88.1-2.7 5.8c-3.7 7.9-12 15.9-19.5 18.7-7.9 3-18.7 3-26.6 0-7.5-2.8-15.8-10.8-19.5-18.7l-2.7-5.8-.5-88.1-.5-88.2-29 42.1c-15.9 23.2-30.7 43.8-32.7 45.9-12.9 13-34.9 13.3-49.3.7-10.4-9.2-14.4-27.3-8.8-39.9 1.1-2.5 28.6-43.2 61.1-90.4l59.2-85.8v-104c0-89.1-.2-103.9-1.4-103.5-2.4.9-177 101.9-178.3 103.1-.7.6-20.2 40.9-43.3 89.6-23.2 48.7-43.5 91.4-45.2 95-11.4 23.8-41.2 29-58.8 10.4-2.8-3-6.1-7.5-7.2-10.1-2.6-5.8-3.5-16.6-1.9-22.9.7-2.5 11.1-25.4 23.1-50.7 12.1-25.4 22-46.5 22-46.8 0-.4-33.4 18.6-74.3 42.2-40.8 23.6-76 43.5-78.2 44.2-2.2.6-7.1 1.1-11 1.1-14-.2-25.6-7.6-31.7-20.2-2.9-6-3.2-7.6-3.2-15.2 0-10.6 3.2-18.4 10.2-25.3 3.4-3.3 22.8-15 69.2-41.7 35.5-20.5 68.8-39.7 74-42.8l9.5-5.6-52.5-4.2c-59.6-4.8-60-4.9-69.5-13.5-3.2-3-6.5-7.3-8.2-10.7-2.5-5.1-2.8-6.8-2.8-15.7 0-8.4.4-10.7 2.4-14.7 5.7-11.7 17.1-19.7 29-20.6 3.7-.2 51 3.1 109.1 7.8l102.6 8.2 89.7-51.8c49.4-28.5 89.6-52.1 89.5-52.6-.2-.4-40.5-24-89.7-52.4l-89.5-51.6-102.5 8.2c-58.1 4.7-105.5 8-109.2 7.8-11.9-.9-23.3-8.9-29-20.6-2-4-2.4-6.3-2.4-14.7 0-8.9.3-10.6 2.8-15.7 1.7-3.4 5-7.7 8.2-10.7 9.5-8.6 9.9-8.7 69.5-13.5l52.5-4.2-9.5-5.6c-5.2-3.1-38.5-22.3-74-42.8-46.3-26.7-65.8-38.4-69.2-41.7-7-6.9-10.2-14.7-10.2-25.3 0-7.6.3-9.2 3.2-15.2 4-8.1 11-14.8 19-17.9 6.9-2.7 18.7-3.1 24.8-.8 3.2 1.2 108.9 61.7 144.1 82.5 4 2.4 7.3 4 7.3 3.6 0-.4-9.9-21.5-22-46.9s-22.5-48.3-23.1-50.8c-1.6-6.2-.7-17 1.9-22.8 4.9-11.2 17.4-20 30-21.3 11.6-1.3 26.4 5.7 32.3 15.2 1.3 2.1 22.4 45.9 46.9 97.4l44.5 93.5 89.5 51.7c49.2 28.5 89.8 51.7 90.3 51.8.4 0 .7-46.7.7-103.9V369.2l-59.2-85.8c-32.5-47.2-60-87.9-61.1-90.4-5.6-12.6-1.6-30.7 8.8-39.9 14.4-12.6 36.4-12.3 49.3.7 2 2.1 16.8 22.7 32.7 45.9l29 42.1.5-88.2.5-88.1 2.7-5.7c8.3-17.8 27.7-25.5 46.6-18.6z"/></svg>