<svg xmlns="http://www.w3.org/2000/svg" viewBox="0 0 90.52 94.3"><defs><style>.cls-1{fill:#fff;}</style></defs><g id="Слой_2" data-name="Слой 2"><g id="logo_Изображение" data-name="logo Изображение"><path class="cls-1" d="M43.05.19A170.42,170.42,0,0,1,88,6.68c2.67.57,2.5,3.24,2.3,5.52q0,17.16,0,34.32c.86,9-.56,18-6.5,25.13C77,80.39,66.88,85.11,57.17,89.81c-3.25,1.55-6.56,3-9.93,4.21a6.44,6.44,0,0,1-3.69,0c-16-5.12-33.21-13.61-40.73-29.46A24.84,24.84,0,0,1,.29,55C.12,48.28.07,41.58,0,34.87c0-8,0-16,0-24C0,8.5,1,7.08,3.15,6.48A142.84,142.84,0,0,1,43,0Zm45.31,16.2h.24c-.17-3,1-7.64-2.82-8.51C81.57,7,77.38,6,73.14,5.27,56.44,2.3,39.4.53,22.57,3.57A115.45,115.45,0,0,0,4.84,8c-1.94.62-2.66,1.7-2.66,3.8,0,10.85,0,21.69,0,32.53,0,3.71.11,7.41.25,11.12.58,8.42,5.74,15.8,12,21.24,7.84,7.1,17.77,10.78,27.31,14.92a7.75,7.75,0,0,0,6,.52C62.66,86.65,79,79.05,86.06,63.83c3.45-6.73,2.36-14.29,2.31-21.56C88.34,33.65,88.36,25,88.36,16.39Z"/><path class="cls-1" d="M86.2,31.28c-.29,22.31,3.68,36.71-19.31,49-6.32,3.29-12.83,6.23-19.27,9.3-1.88.89-3.74.35-5.47-.38C29.69,84.11,16.55,78.39,8.83,66.77A29.68,29.68,0,0,1,4.37,51.13c0-12.88.22-25.75.2-38.62A2.81,2.81,0,0,1,6.92,9.86c3.71-1.07,7.45-2.07,11.22-2.92,18.65-4.1,38.08-2.87,56.67,1,3.07.6,6.09,1.42,9.11,2.2a3.72,3.72,0,0,1,2.28,3.29Zm-1,0V13.61A2.64,2.64,0,0,0,83.49,11c-4.09-1-8.15-2.15-12.28-2.88-17-3.09-34.53-4.1-51.54-.48-4.12.81-8.17,2-12.24,3.07a2.31,2.31,0,0,0-2,2.24c.22,13.55,0,27.12.12,40.68,0,4.48,1.7,8.55,4,12.36,7.56,11.54,20.69,17.23,33,22.2,1.54.65,3.15,1.17,4.84.35,6.35-3.06,12.77-6,19-9.21C88.86,67.57,84.89,53,85.24,31.25Z"/><path class="cls-1" d="M31.45,63.54c-5.14-.3-10.09-.43-15.16-1-1.17-.14-1.51-.93-.8-1.89a9.62,9.62,0,0,0,1.6-6.21c-.06-8.76,0-17.52,0-26.28.11-1.83-1-3.08-1.95-4.46-.9-1.65,1.2-1.85,2.35-1.7H31.34a7,7,0,0,0,0-4.78c-.45-1.28-1.67-1.64-2.75-2.12-.63-.27-1.24-.48-1.12-1.29s.84-.94,1.56-.94c6.12,0,12.24-.13,18.36,0,7.42-.08,12.92,5.51,13.23,13,3.77-3.56,7.67-5.42,13-4.47,1.6.47,5.5-.15,5.4,2.2-.19,1.48.25,4.5-2.26,3.42-3.3-1.38-8.4-4.23-11-.51-1.53,2.17-1.75,4.63-.25,6.55,6.61,7.31,19.83,13.75,12.35,25.46-2.75,3.88-7.17,4.85-11.66,5.11-2.45.27-3.94,2.1-5.64,3.56C54.88,73,46.51,71.71,39.16,72c-3.07,0-6.14-.12-9.2-.26-1.18-.17-1.77-1.2-.7-2.08C31.76,68.24,31.46,65.93,31.45,63.54Zm-1.83,7,.12.45c6.76,0,13.53,0,20.29-.25,4.42,0,8.18-2.51,11.2-5.51C64,62.09,68.45,62.8,72.1,61.61a10.19,10.19,0,0,0,6.16-13.47c-2.64-6-8.6-9.16-13-13.61a6.48,6.48,0,0,1,1.25-10c3.75-2.29,7.69.29,11.18,1.81,0-1.19,1.15-3.08-.54-3.4a26.35,26.35,0,0,0-8.68-.46c-6.19.93-9.93,6.68-7.16,12.67,1.49,3.21,4.1,5.59,6.45,8.12,3.43,3.58,9.41,6.77,7.45,12.65a7.33,7.33,0,0,1-9.49,4.77c-.84-.26-1-.63-.8-1.45C67.7,48.93,61,42.91,52.62,38.56,58.88,32,63.2,23.23,54.76,16.29a13.18,13.18,0,0,0-7.87-2.4c-6.19-.07-12.3,0-18.5,0,3.75,1.8,5,2.58,3.87,9.15H15.93c1.16,1.74,2.3,3.1,2.12,5.32-.05,9.48,0,19-.06,28.45A11.62,11.62,0,0,1,16.1,61.7l16.31.93C32.38,65.68,33,68.81,29.62,70.56ZM54.34,38.33C62.19,42.47,68.21,49,66.13,58.46c-.13.6-.43,1.32.56,1.49C73,61.44,77.23,53.61,72.51,49,67.2,44,60.43,38.94,59.33,31.29Z"/><path class="cls-1" d="M32.62,24.44V61c-3.41-.78-9.93.64-10-4.32q-.14-12.11-.23-24.2C22.05,22.62,24.16,24.65,32.62,24.44Zm-1,35.49V25.4c-9.24-.22-8.08-.33-8.31,8.37.05,7.5.15,15,.23,22.51C23.46,60.5,28.75,59.28,31.63,59.93Z"/><path class="cls-1" d="M53.31,44.62c6.39,5.25,9.28,18.4.7,22.94-4.36,2.28-10.29,3-14.09-.63-1.86-1.93-1.15-4.84,1.2-6.19C48.3,57.47,51.6,52.12,53.31,44.62Zm.59,1.82c-2,7.31-5.47,11.89-12.29,15.19-2,1.17-2.41,3.31-.67,4.81,3.6,3.06,8.83,2.23,12.76.15C61.13,62.41,58.44,51.87,53.9,46.44Z"/><path class="cls-1" d="M52.15,35.12a18.86,18.86,0,0,0-13.24-11.3c0-2.26,0-4.57,0-6.89a1.1,1.1,0,0,1,.59-.83C51.17,12.38,56.82,25.39,52.15,35.12Zm-12.28-18c0,1.72,0,3.36,0,5,0,.68.24.92.85,1.19,4.72,1.77,8.8,4.55,11.29,9.11C55.3,24.4,49.18,13.48,39.87,17.13Z"/><path class="cls-1" d="M38.91,59.57c0-6.1,0-12,0-17.93,0-.29.44-.83.68-.84,2.4-.06,4.81-.1,7.21,0A2,2,0,0,1,48.75,43a25.35,25.35,0,0,1-2.23,10.38C45.12,56.68,42.07,58.15,38.91,59.57Zm1-1.62C45.6,56,47,50.29,47.72,45c.26-2.22.55-3.41-2.36-3.35a11.81,11.81,0,0,0-5.45.13Z"/><path class="cls-1" d="M39,27c4.89,2.37,7.57,6.29,9,11.3H39Zm.9,10.3h6.75c-1.35-3.64-3.25-6.66-6.75-8.6Z"/></g></g></svg>