<svg xmlns="http://www.w3.org/2000/svg" viewBox="0 0 252.77 179.74"><defs><style>.cls-1{fill:#fff;}</style></defs><g id="Слой_2" data-name="Слой 2"><g id="Слой_1-2" data-name="Слой 1"><g id="Слой_2-2" data-name="Слой 2"><g id="Слой_1-2-2" data-name="Слой 1-2"><g id="Слой_2-2-2" data-name="Слой 2-2"><g id="Слой_1-2-2-2" data-name="Слой 1-2-2"><path class="cls-1" d="M68.19,107.82c11.15-19.93,21.33-40.38,32-60.56a23.65,23.65,0,0,1,2.5-3.3l1.14.8L96.9,58.14c13.76,5.92,14.86,10.25,5.76,22.88,6.5,3.36,12.52,8.51,11,16.66-1.11,6.52-5,11-11.32,11.88-6.52.86-13.24.19-19.49.19,2.49-8.59,1.33-17,.81-26.11L63.12,122.56l-1.56-.8C63.77,117.11,66,112.46,68.19,107.82Zm22-24.69c0,6.94-.07,13.67.07,20.41a4.69,4.69,0,0,0,1.5,3.21c5,4.12,14.32.81,15.79-5.49,2.5-10.7-5.74-19.58-17.33-18.13Zm5.34-22.38a43.74,43.74,0,0,1-2.9,5.34C90,69.8,89.82,74,90.13,78.24c0,5,8.82,2.83,10.87.67,4.67-5.51,1.9-15.56-5.44-18.16Z"/><path class="cls-1" d="M245.51,59.56a3.91,3.91,0,0,1,.63-1.13l.16-.68q3.22-6.57,6.47-13.12l-1-.69a20.69,20.69,0,0,0-2.41,3.11c-8.92,16.89-18,34.67-26.92,51.36L208.75,84.94c7.89-5.61,13.05-14.72,23.82-18.44H221.29c-3.29,8.93-10.89,13.06-16.7,18.85-.46-4.3-.32-8.39-.46-12.47-.1-2.84,0-5.4,3.42-6.2H195.88c.8,1.77,2.28,3.52,2.28,5.31.22,10.37.09,20.75.09,31.13,0,2.82,0,5.66-4.37,6.89h15c-1.44-1.09-4.06-2.09-4.15-3.29-.43-5.83-.19-11.7-.19-17.9,16.55,18.76,17.38,10.24,5.9,33l1,.66c3.41-3.31,4.78-8.11,7.18-12.11L234.28,81l.12-.19a3.44,3.44,0,0,1,.35-.58c.07-.13.14-.26.22-.39s.13-.28.21-.42l.22-.28.3-.55.21-.37c0-.07.07-.13.1-.2s.14-.26.21-.39a4.92,4.92,0,0,1,.51-1.24L237,76c2.2-4.5,4-9.21,6.92-13.29,0-.05,0-.09,0-.13a3.78,3.78,0,0,1,.76-1.28,4.56,4.56,0,0,1,.37-.65A4,4,0,0,1,245.51,59.56Z"/><path class="cls-1" d="M170.48,111.06c-31.53-.33-30.36-45.46.85-45.58C204.27,65.71,201.37,111.25,170.48,111.06ZM153.72,87.41c-.73,11.66,9,23.73,21.73,20.87,12.75-1.9,13.73-16.07,12-26.29s-11.21-15.84-21.31-13.71C158.05,70,153.7,76.45,153.72,87.41Z"/><path class="cls-1" d="M113.65,66.33c5.85.14,11.72,0,17.54.47,10.4.93,14.39,10.23,8.23,18.76-1.16,1.61-2.55,3.06-4.21,5,7,6.66,10.54,17.1,21.79,19.07-11.73,3.86-17.78-5.37-23.59-13.73-2.57-4.3-6.11-5-11-3.85.55,5.9-1.62,12.1,2.16,18h-8.89c.49-2.67,1.25-5,1.28-7.37q.21-15,0-30c0-2.23.15-5.06-3.39-5.22C113.6,67.08,113.63,66.71,113.65,66.33Zm14.4,23.81c2-.75,4.38-1.07,6-2.34,3-2.39,3.46-9.17,1.45-13.7-1.63-3.69-5.26-5.74-9.69-5.66-2.41,0-3.62.79-3.49,3.49.2,4,0,8,0,12C122.36,89.5,122.37,89.5,128.05,90.14Z"/><path class="cls-1" d="M234.73,80.29a4,4,0,0,1,.27-.44c.06-.13.11-.26.18-.39l.36-.46a4.35,4.35,0,0,1,.43-.83,5.06,5.06,0,0,1,.24-.46c0-.12.07-.23.11-.35l-2,3.68h0A5.77,5.77,0,0,1,234.73,80.29Z"/><path class="cls-1" d="M53.25.32c21.42.3,49.2-5.77,51.28,24,.28,14-8.84,25.55-21.86,27-9.64.62-19.06.2-28.84-.26,4-.86,4.36-3.65,4.36-6.77q0-18.57.12-37.14C58.34,3.45,58.12.17,53.25.32Zm11,23.36h.13V42.82c0,3,.81,5.81,4.33,5.9,5.3.14,10.91.8,15.87-.58C98.67,44.2,100,28.87,97.17,19.2,93.47,6.74,78.57-1.3,66.25,2.43c-.93.28-1.93,2.1-2,3.23C64.09,11.66,64.25,17.67,64.25,23.68Z"/><path class="cls-1" d="M132,7.91h11.77c.07,1.57-.22,3.06.25,4.27,3.82,9.88,7.78,19.7,11.72,29.54A7.5,7.5,0,0,0,156.87,43c4.18-10.81,8.24-21.19,12.14-31.63.31-.85-.55-2.13-.93-3.42h8.23a50.6,50.6,0,0,0-4.06,6.28c-6,13-10.92,25.77-17.29,38.59C148.61,40,144,27,138.31,13.92,137.1,11,136.08,7.92,132,7.91Z"/><path class="cls-1" d="M202.25,7.71l-.74,7c-1-2.84-2.37-4.76-5.67-4.58-2.59.15-5.18,0-7.92,0V26.89l13.4-.83-.84,8c-2.18-7.4-7.94-3.91-12.54-5.3,0,6,0,11.53.06,17.09,0,.73.75,2,1.29,2.07,2.67.43,5.39.57,8.1.76,3.44.24,4.92-1.79,5.52-4.84,0-.14.34-.22.7-.42,0,.66.13,1.24.11,1.81-.2,6.09-.39,6.26-6.37,6.24-5.68-.24-12.15.54-17.65-.45.79-1.86,2-3.47,2.07-5.11.19-11.12.23-22.24,0-33.36,0-1.59-1.64-3.14-2.58-4.82Z"/><path class="cls-1" d="M129.06,7.74l-1,5.67c-3.81-5.26-8.81-2.48-13.4-3.5v17L128,26.09l-1.07,5.56C123.48,28,119,29.45,114.55,29c0,5.65-.2,11,.15,16.3.08,1.16,2,2.5,3.32,3.18,1.13.57,2.68.37,4,.39,3.82,0,7.36-.42,7.64-5.7l1,.45c-.31,2.19-.5,4.41-1,6.56a2.49,2.49,0,0,1-2,1.23c-7.53.09-15.07.06-23-.39,3.84-.65,3.88-3.36,3.89-6q.11-15.93.09-31.86c0-2.49-.23-5-3.7-5.39Z"/><path class="cls-1" d="M227.39,48.87c-.41.86-.82,1.72-1.24,2.58l-14.9-.19-.11-1.38c.47-2.16,1.32-4.31,1.35-6.47.14-9.85.07-19.71,0-29.56,0-2.77.08-5.7-3.91-6h11.89c-.73,1.54-2.22,3.14-2.22,4.84-.11,9.84-.08,19.7.31,29.53C218.48,49.48,221.25,48.51,227.39,48.87Z"/><path class="cls-1" d="M211.13,49.88l.11,1.38h-2.86l-.09-.75Z"/><path class="cls-1" d="M182.44,123,201.2,159.2c6.12-12.38,12-24.28,17.9-36.18l1,.21,2.56,20.24c1.12,8.1.91,16.46,5.13,23.75h-8.13c-1-10.7-2-20.91-3-31.12l-.6-.27c-5.2,10.46-10.39,20.93-16.18,32.58-5.63-11.06-10.79-21.16-15.94-31.27H183c0,10-3.35,19.9-1.45,30.08h-7.26c.91-2.51,2.21-4.8,2.53-7.22,1.81-12.22,2.59-24.6,4.7-36.8Z"/><path class="cls-1" d="M41.38,101.2A21.36,21.36,0,0,0,39,104.31c-8.92,16.89-18,34.67-26.92,51.36l-.42-.41a5,5,0,0,1-.6,1.91c-1.24,2.22-2.06,4.6-3.48,6.34-.64,2.83-3.21,7-7.55,15.57l1,.66c3.41-3.31,4.78-8.11,7.18-12.11L23.89,138.3c4.29-6.59,6.17-14.59,11.41-20.59l.61-2.7q3.23-6.57,6.47-13.12Z"/><path class="cls-1" d="M155.12,143.13l13.3-.89c-.18,1.94-.43,4.6-.74,7.92-2.24-7.25-7.92-3.87-12.51-5.19,0,6,0,11.73.06,17.42,0,.6.71,1.65,1.21,1.72,2.68.39,5.39.56,8.1.77,3.49.28,4.86-1.88,5.54-4.85,0-.15.33-.23.75-.51.15,4.19.25,9-5.51,8.24-5.93-.58-12.46.25-18.34-.33.79-2.45,2-4.49,2-6.56.21-10.38.08-20.77.14-31.16,0-2.94-.44-5.31-4.1-5.82h24.35c-.26,2.22-.55,4.71-.89,7.7-2-5.61-2.95-5.94-13.38-5Z"/><path class="cls-1" d="M121.31,166.06a23.75,23.75,0,0,0,.83-4.34c.06-11.63,0-23.26,0-35.47-5.09.93-11.23-2.35-15.27,4.33.54-2.54,1.08-5.08,1.52-7.19h33.85V132c-2.56-8.7-9.06-4.43-14-5.82,0,12.45-.06,24.42.09,36.39,0,1.23,1.27,2.44,2,3.66v1.28h-8.88Z"/><path class="cls-1" d="M59.82,166.09c2.37-6.44,2.78-13.24-.12-19.26-3.28-6.81-8-13-12.18-19.28-.78-1.18-2.26-1.89-3.41-2.81v-.54h9.43c.31,1.38.31,2.89,1,4,3.31,5.7,6.78,11.29,10.57,17.53,3.76-6.49,7.32-12.54,10.7-18.68.37-.69-.35-2-.65-3.36l8.15.4c-4.9,4.25-7.78,10.27-11.52,15.46-5.49,7-5.49,15-4.7,23.15.13,1.25,1.62,2.38,2.47,3.56l-.71,1.18H60C59.89,167,59.86,166.55,59.82,166.09Z"/><path class="cls-1" d="M83.34,158.2c1.2,8.75,12.63,10.17,16.68,4,4.2-7.29-4.11-11.65-8.57-16.14-2.64-2.89-5.69-5.81-7.09-9.31-2.49-6.28,1.27-12.33,8-13.36,4-.61,8.08-.11,12.47-.11-.17,3.34-.29,5.85-.42,8.37-2.17-5.08-4.51-6.89-9.37-6.62a6.66,6.66,0,0,0-4.87,11.6c2.43,2.31,5.38,4.11,7.66,6.55,2.67,2.85,5.69,5.8,7.08,9.3a11,11,0,0,1-6,14.36,11.62,11.62,0,0,1-2.18.64c-3.78.76-7.9.38-11.79-.1C82,167,81.53,164.61,83.34,158.2Z"/><path class="cls-1" d="M23.89,138.3l3-5.4c8.35,7.23,22,14.44,15.53,27.46-2.91,6.53-9.7,8.47-16.36,8-8-.32-8.85-1.35-8-9.85a12.68,12.68,0,0,1,1.5,1.69c8,12.86,27,2,16.52-10.89C32.3,145.41,28,142,23.89,138.3Z"/><path class="cls-1" d="M44.11,124.2v.53c-1-.51-2.6-.87-2.75-1.55-.72-3.43-3-4.79-6.06-5.48l.6-2.7,6.7,1.11c0,2.12-.12,4.18.07,6.22C42.74,123,43.66,123.59,44.11,124.2Z"/><path class="cls-1" d="M130.31,167.51V166.2l3.33.35v.93Z"/><path class="cls-1" d="M68.81,167.47l.71-1.18,2.91.33v.85Z"/><path class="cls-1" d="M59.82,166.09c0,.46.07.92.1,1.38l-2.8.16-.15-.86Z"/><path class="cls-1" d="M121.31,166.06l.12,1.4-3,.14-.08-.86Z"/><path class="cls-1" d="M113.65,66.33a6,6,0,0,1-.08,1.12l-1.35-.65Z"/></g></g></g></g></g></g></svg>