<svg xmlns="http://www.w3.org/2000/svg" viewBox="0 0 544.09 78.62"><defs><style>.cls-1{fill:#0d0d0d;}.cls-2{fill:#0a0a0a;}.cls-3{fill:#9e8c7c;}.cls-4{fill:#9f8d7d;}.cls-5{fill:#9d8b7a;}.cls-6{fill:#9d8a7a;}.cls-7{fill:#090909;}.cls-8{fill:#0b0b0b;}.cls-9{fill:#030303;}.cls-10{fill:#121212;}.cls-11{fill:#545454;}.cls-12{fill:#585858;}.cls-13{fill:#cdc4bc;}</style></defs><g id="Слой_2" data-name="Слой 2"><g id="Слой_1-2" data-name="Слой 1"><path class="cls-1" d="M0,15.33c21.42.3,49.2-5.77,51.28,24,.28,13.95-8.84,25.55-21.86,27-9.64.62-19.06.2-28.84-.26,4-.86,4.36-3.65,4.36-6.77q0-18.57.12-37.14C5.09,18.46,4.87,15.18,0,15.33ZM11,38.69h.13c0,6.38,0,12.76,0,19.14,0,3,.81,5.81,4.33,5.9,5.3.14,10.91.8,15.87-.58,14.09-3.94,15.44-19.27,12.59-28.94C40.22,21.75,25.32,13.71,13,17.44c-.93.28-1.93,2.1-2,3.23C10.84,26.67,11,32.68,11,38.69Z"/><path class="cls-2" d="M498.78,21.83,517.54,58c6.12-12.38,12-24.28,17.9-36.18l1,.21L539,42.27c1.12,8.1.91,16.46,5.13,23.75h-8.18c-1-10.7-2-20.91-3-31.12l-.6-.27c-5.2,10.46-10.39,20.93-16.18,32.58-5.63-11.06-10.79-21.16-15.94-31.27l-.91,0c0,10-3.35,19.9-1.45,30.08h-7.26c.91-2.51,2.21-4.8,2.53-7.22,1.84-12.22,2.64-24.6,4.75-36.76Z"/><path class="cls-3" d="M174.14,63.88c11.15-19.93,21.33-40.38,32-60.56a23.86,23.86,0,0,1,2.5-3.3l1.14.8L202.85,14.2c13.76,5.92,14.86,10.25,5.76,22.88,6.5,3.36,12.52,8.51,11,16.66-1.11,6.52-5,11-11.32,11.88-6.52.86-13.24.19-19.49.19,2.49-8.59,1.33-17,.81-26.11L169.07,78.62l-1.56-.8C169.72,73.17,171.91,68.52,174.14,63.88Zm22-24.69c0,6.94-.07,13.67.07,20.41a4.72,4.72,0,0,0,1.5,3.21c5,4.12,14.32.81,15.79-5.49C216,46.62,207.76,37.74,196.17,39.19Zm5.34-22.38a44,44,0,0,1-2.9,5.34c-2.67,3.71-2.81,7.89-2.5,12.15,0,5,8.82,2.83,10.87.67C211.62,29.46,208.85,19.41,201.51,16.81Z"/><path class="cls-4" d="M351.64,16.51c-5.24,6-7.12,14-11.41,20.59q-7.86,14.67-15.71,29.33c-2.4,4-3.77,8.8-7.18,12.11l-1-.66c11.48-22.76,10.65-14.24-5.9-33,0,6.2-.24,12.07.19,17.9.09,1.2,2.71,2.2,4.15,3.29H299.83c4.34-1.23,4.36-4.07,4.37-6.89,0-10.38.13-20.76-.09-31.13,0-1.79-1.48-3.54-2.28-5.31H313.5c-3.44.8-3.52,3.36-3.42,6.2.14,4.08,0,8.17.46,12.47,5.81-5.79,13.41-9.92,16.7-18.85h11.28C327.75,26.28,322.59,35.39,314.7,41l13.69,13.47c8.89-16.69,18-34.47,26.92-51.36A21.35,21.35,0,0,1,357.72,0l1,.69q-3.24,6.56-6.47,13.12Z"/><path class="cls-5" d="M276.43,67.12c-31.53-.33-30.36-45.46.85-45.58C310.22,21.77,307.32,67.31,276.43,67.12ZM259.67,43.47c-.73,11.66,9,23.73,21.73,20.87,12.75-1.9,13.73-16.07,12-26.29-1.86-10.16-11.21-15.84-21.31-13.71C264,26.05,259.65,32.51,259.67,43.47Z"/><path class="cls-6" d="M219.6,22.39c5.85.14,11.72-.05,17.54.47,10.4.93,14.39,10.23,8.23,18.76-1.16,1.61-2.55,3.06-4.21,5,7,6.66,10.54,17.1,21.79,19.07-11.73,3.86-17.78-5.37-23.59-13.73-2.57-4.3-6.11-5-11-3.85.55,5.9-1.62,12.1,2.16,18h-8.89c.49-2.67,1.25-5,1.28-7.37q.21-15,0-30c0-2.23.15-5.06-3.39-5.22C219.55,23.14,219.58,22.77,219.6,22.39ZM234,46.2c2-.75,4.38-1.07,6-2.34,3-2.39,3.46-9.17,1.45-13.7-1.63-3.69-5.26-5.74-9.69-5.66-2.41,0-3.62.79-3.49,3.49.2,4,.05,8,.05,12C228.31,45.56,228.32,45.56,234,46.2Z"/><path class="cls-1" d="M471.46,41.93l13.3-.89c-.18,1.94-.43,4.6-.74,7.92-2.24-7.25-7.92-3.87-12.51-5.19,0,6,0,11.73.06,17.42,0,.6.71,1.65,1.21,1.72,2.68.39,5.39.56,8.1.77,3.49.28,4.86-1.88,5.54-4.85,0-.15.33-.23.75-.51.15,4.19.25,9-5.51,8.24-5.93-.58-12.46.25-18.34-.33.79-2.45,2-4.49,2-6.56.21-10.38.08-20.77.14-31.16,0-2.94-.44-5.31-4.1-5.82h24.35c-.26,2.22-.55,4.71-.89,7.7-2-5.61-2.95-5.94-13.38-5Z"/><path class="cls-2" d="M78.76,22.92H90.53c.07,1.57-.22,3.06.25,4.27,3.82,9.88,7.78,19.7,11.72,29.54A8.19,8.19,0,0,0,103.62,58c4.18-10.81,8.24-21.19,12.14-31.63.31-.85-.55-2.13-.93-3.42h8.23c-1.28,1.93-3,4-4.07,6.28C113,42.19,108.07,55,101.7,67.82,95.36,55,90.76,42,85.06,28.93,83.85,26,82.83,22.93,78.76,22.92Z"/><path class="cls-1" d="M149,22.72l-.74,7c-1-2.84-2.37-4.76-5.67-4.58-2.59.15-5.18,0-7.92,0V41.9l13.4-.83c-.21,2-.49,4.66-.84,8-2.18-7.4-7.94-3.91-12.54-5.3,0,6,0,11.53.06,17.09,0,.73.75,2,1.29,2.07,2.67.43,5.39.57,8.1.76,3.44.24,4.92-1.79,5.52-4.84,0-.14.34-.22.7-.42,0,.66.13,1.24.11,1.81-.2,6.09-.39,6.26-6.37,6.24-5.68-.24-12.15.54-17.65-.45.79-1.86,2-3.47,2.07-5.11.19-11.12.23-22.24,0-33.36,0-1.59-1.64-3.14-2.58-4.82Z"/><path class="cls-7" d="M75.81,22.75l-1,5.67c-3.81-5.26-8.81-2.48-13.4-3.5v17l13.33-.82-1.07,5.56C70.23,43,65.78,44.46,61.3,44c0,5.65-.2,11,.15,16.3.08,1.16,2,2.5,3.32,3.18,1.13.57,2.68.37,4,.39,3.82,0,7.36-.42,7.64-5.7l1,.45c-.31,2.19-.5,4.41-1,6.56a2.47,2.47,0,0,1-2,1.23c-7.53.09-15.07.06-23-.39,3.84-.65,3.88-3.36,3.89-6q.1-15.93.09-31.86c0-2.49-.23-4.95-3.7-5.39Z"/><path class="cls-1" d="M437.65,64.86a23.71,23.71,0,0,0,.83-4.34c.06-11.63,0-23.26,0-35.47-5.09.93-11.23-2.35-15.27,4.33.54-2.54,1.08-5.08,1.52-7.19h33.85V30.8c-2.56-8.7-9.06-4.43-14-5.82,0,12.45-.06,24.42.09,36.39,0,1.23,1.27,2.44,2,3.66l0,1.28-8.88,0Z"/><path class="cls-7" d="M376.16,64.89c2.37-6.44,2.78-13.24-.12-19.26-3.28-6.81-8-13-12.18-19.28-.78-1.18-2.26-1.89-3.41-2.81V23h9.43c.31,1.38.31,2.89,1,4,3.31,5.7,6.78,11.29,10.57,17.53,3.76-6.49,7.32-12.54,10.7-18.68.37-.69-.35-2-.65-3.36l8.15.4c-4.9,4.25-7.78,10.27-11.52,15.46-5.49,7-5.49,15-4.7,23.15.13,1.25,1.62,2.38,2.47,3.56l-.71,1.18h-8.89C376.23,65.81,376.2,65.35,376.16,64.89Z"/><path class="cls-1" d="M399.68,57c1.2,8.75,12.63,10.17,16.68,4,4.2-7.29-4.11-11.65-8.57-16.14-2.64-2.89-5.69-5.81-7.09-9.31-2.49-6.28,1.27-12.33,8-13.36,3.95-.61,8.08-.11,12.47-.11-.17,3.34-.29,5.85-.42,8.37-2.17-5.08-4.51-6.89-9.37-6.62a6.66,6.66,0,0,0-4.87,11.6c2.43,2.31,5.38,4.11,7.66,6.55,2.67,2.85,5.69,5.8,7.08,9.3a11,11,0,0,1-8.17,15c-3.78.76-7.9.38-11.79-.1C398.29,65.78,397.87,63.41,399.68,57Z"/><path class="cls-8" d="M340.23,37.1l3-5.4c8.35,7.23,22,14.44,15.53,27.46-2.91,6.53-9.7,8.47-16.36,8-8-.32-8.85-1.35-8.05-9.85a12.66,12.66,0,0,1,1.5,1.69c8,12.86,27,2,16.52-10.89C348.64,44.21,344.32,40.77,340.23,37.1Z"/><path class="cls-9" d="M174.14,63.88c-.41.86-.82,1.72-1.24,2.58L158,66.27l-.11-1.38c.47-2.16,1.32-4.31,1.35-6.47.14-9.85.07-19.71,0-29.56,0-2.77.08-5.7-3.91-6h11.89C166.49,24.4,165,26,165,27.7c-.11,9.84-.08,19.7.31,29.53C165.23,64.49,168,63.52,174.14,63.88Z"/><path class="cls-10" d="M360.45,23v.53c-1-.51-2.6-.87-2.75-1.55-.72-3.43-3-4.79-6.06-5.48l.6-2.7,6.7,1.11c0,2.12-.12,4.18.07,6.22C359.08,21.81,360,22.39,360.45,23Z"/><path class="cls-11" d="M446.65,66.31l0-1.28,3.33.35,0,.93Z"/><path class="cls-11" d="M385.15,66.27l.71-1.18,2.91.33,0,.85Z"/><path class="cls-12" d="M157.88,64.89l.11,1.38h-2.86l-.09-.75Z"/><path class="cls-11" d="M376.16,64.89c0,.46.07.92.1,1.38l-2.8.16-.15-.86Z"/><path class="cls-11" d="M437.65,64.86l.12,1.4-2.95.14-.08-.86Z"/><path class="cls-13" d="M219.6,22.39c0,.38,0,.75-.08,1.12l-1.35-.65Z"/></g></g></svg>